<svg xmlns="http://www.w3.org/2000/svg" xmlns:xlink="http://www.w3.org/1999/xlink" width="35" height="30" enable-background="new 0 0 384.002 192.001" version="1.1" xml:space="preserve"><rect id="backgroundrect" width="100%" height="100%" x="0" y="0" fill="none" stroke="none"/><g class="currentLayer"><title>Layer 1</title><g id="Artwork"><g id="svg_1"><g id="svg_2"><g id="svg_3"><g id="svg_4"><circle id="svg_5" cx="19.249" cy="1.62" r="1.62" fill="#FFF"/><circle id="svg_6" cx="23.7" cy="6.072" r="1.8" fill="#FFF"/><circle id="svg_7" cx="28.154" cy="10.524" r="1.98" fill="#FFF"/><circle id="svg_8" cx="32.605" cy="14.977" r="2.16" fill="#FFF"/><circle id="svg_9" cx="10.345" cy="1.62" r="1.44" fill="#FFF"/><circle id="svg_10" cx="14.796" cy="6.072" r="1.621" fill="#FFF"/><circle id="svg_11" cx="19.249" cy="10.524" r="1.8" fill="#FFF"/><circle id="svg_12" cx="23.701" cy="14.977" r="1.98" fill="#FFF"/><circle id="svg_13" cx="28.153" cy="19.429" r="2.159" fill="#FFF"/><circle id="svg_14" cx="1.44" cy="1.62" r="1.261" fill="#FFF"/><circle id="svg_15" cx="5.892" cy="6.072" r="1.44" fill="#FFF"/><circle id="svg_16" cx="10.345" cy="10.523" r="1.62" fill="#FFF"/><circle id="svg_17" cx="14.797" cy="14.976" r="1.8" fill="#FFF"/><circle id="svg_18" cx="19.248" cy="19.428" r="1.98" fill="#FFF"/><circle id="svg_19" cx="23.701" cy="23.88" r="2.16" fill="#FFF"/></g><g id="svg_20"><circle id="svg_21" cx="10.345" cy="19.428" r="1.44" fill="#FFF"/><circle id="svg_22" cx="5.892" cy="23.88" r="1.44" fill="#FFF"/><circle id="svg_23" cx="1.441" cy="28.332" r="1.441" fill="#FFF"/><circle id="svg_24" cx="10.345" cy="28.332" r="1.441" fill="#FFF"/><circle id="svg_25" cx="19.249" cy="28.333" r="1.441" fill="#FFF"/><circle id="svg_26" cx="14.797" cy="23.88" r="1.44" fill="#FFF"/></g></g></g></g></g></g></svg>